HIERARCHY
ROOT Root
{
  OFFSET 0.0 0.0 0.0
  CHANNELS 6 Xposition Yposition Zposition Zrotation Yrotation Xrotation
  JOINT Hips
  {
    OFFSET 0.0 100.0 0.0
    CHANNELS 6 Xposition Yposition Zposition Zrotation Yrotation Xrotation
    JOINT Spine1
    {
      OFFSET 5.003913 -0.037094 -0.013727
      CHANNELS 3 Zrotation Yrotation Xrotation
      JOINT Spine2
      {
        OFFSET 7.125363 -1e-06 0.0
        CHANNELS 3 Zrotation Yrotation Xrotation
        JOINT Chest
        {
          OFFSET 7.594027 1e-06 0.0
          CHANNELS 3 Zrotation Yrotation Xrotation
          JOINT Neck1
          {
            OFFSET 26.313086 -0.460272 -0.181672
            CHANNELS 3 Zrotation Yrotation Xrotation
            JOINT Neck2
            {
              OFFSET 8.045911 0.0 0.0
              CHANNELS 3 Zrotation Yrotation Xrotation
              JOINT Head
              {
                OFFSET 6.432774 0.0 0.0
                CHANNELS 3 Zrotation Yrotation Xrotation
                JOINT HeadEnd
                {
                  OFFSET 16.169773 0.06451 0.00362
                  CHANNELS 3 Zrotation Yrotation Xrotation
                }
                JOINT Jaw
                {
                  OFFSET 0.108741 3.12938 0.002639
                  CHANNELS 3 Zrotation Yrotation Xrotation
                }
                JOINT LeftEye
                {
                  OFFSET 4.45173 8.166359 3.206392
                  CHANNELS 3 Zrotation Yrotation Xrotation
                }
                JOINT RightEye
                {
                  OFFSET 4.436895 8.135758 -3.222429
                  CHANNELS 3 Zrotation Yrotation Xrotation
                }
              }
            }
          }
          JOINT LeftShoulder
          {
            OFFSET 23.218927 5.195579 1.621656
            CHANNELS 3 Zrotation Yrotation Xrotation
            JOINT LeftArm
            {
              OFFSET 15.902118 2e-06 -2e-06
              CHANNELS 3 Zrotation Yrotation Xrotation
              JOINT LeftForeArm
              {
                OFFSET 28.739307 0.0 -1e-06
                CHANNELS 3 Zrotation Yrotation Xrotation
                JOINT LeftHand
                {
                  OFFSET 27.093981 -4e-06 0.0
                  CHANNELS 3 Zrotation Yrotation Xrotation
                  JOINT LeftHandThumb1
                  {
                    OFFSET 2.276781 3.380274 0.83384
                    CHANNELS 3 Zrotation Yrotation Xrotation
                    JOINT LeftHandThumb2
                    {
                      OFFSET 4.705309 -1e-06 -1e-06
                      CHANNELS 3 Zrotation Yrotation Xrotation
                      JOINT LeftHandThumb3
                      {
                        OFFSET 2.798515 0.0 3e-06
                        CHANNELS 3 Zrotation Yrotation Xrotation
                        JOINT LeftHandThumbEnd
                        {
                          OFFSET 3.180793 4e-06 -4e-06
                          CHANNELS 3 Zrotation Yrotation Xrotation
                        }
                      }
                    }
                  }
                  JOINT LeftHandIndex1
                  {
                    OFFSET 3.247786 2.352677 0.137192
                    CHANNELS 3 Zrotation Yrotation Xrotation
                    JOINT LeftHandIndex2
                    {
                      OFFSET 6.367095 1e-06 0.0
                      CHANNELS 3 Zrotation Yrotation Xrotation
                      JOINT LeftHandIndex3
                      {
                        OFFSET 3.662364 0.0 0.0
                        CHANNELS 3 Zrotation Yrotation Xrotation
                        JOINT LeftHandIndex4
                        {
                          OFFSET 2.329242 4e-06 -4e-06
                          CHANNELS 3 Zrotation Yrotation Xrotation
                          JOINT LeftHandIndexEnd
                          {
                            OFFSET 2.767823 1e-06 0.0
                            CHANNELS 3 Zrotation Yrotation Xrotation
                          }
                        }
                      }
                    }
                  }
                  JOINT LeftHandMiddle1
                  {
                    OFFSET 3.163612 0.945023 -0.406112
                    CHANNELS 3 Zrotation Yrotation Xrotation
                    JOINT LeftHandMiddle2
                    {
                      OFFSET 6.276789 3e-06 0.0
                      CHANNELS 3 Zrotation Yrotation Xrotation
                      JOINT LeftHandMiddle3
                      {
                        OFFSET 4.35652 -1e-06 4e-06
                        CHANNELS 3 Zrotation Yrotation Xrotation
                        JOINT LeftHandMiddle4
                        {
                          OFFSET 2.996877 0.0 8e-06
                          CHANNELS 3 Zrotation Yrotation Xrotation
                          JOINT LeftHandMiddleEnd
                          {
                            OFFSET 2.323256 3e-06 -4e-06
                            CHANNELS 3 Zrotation Yrotation Xrotation
                          }
                        }
                      }
                    }
                  }
                  JOINT LeftHandRing1
                  {
                    OFFSET 2.882606 -0.309162 0.107445
                    CHANNELS 3 Zrotation Yrotation Xrotation
                    JOINT LeftHandRing2
                    {
                      OFFSET 6.033198 0.0 4e-06
                      CHANNELS 3 Zrotation Yrotation Xrotation
                      JOINT LeftHandRing3
                      {
                        OFFSET 4.350578 3e-06 0.0
                        CHANNELS 3 Zrotation Yrotation Xrotation
                        JOINT LeftHandRing4
                        {
                          OFFSET 2.651321 2e-06 -7e-06
                          CHANNELS 3 Zrotation Yrotation Xrotation
                          JOINT LeftHandRingEnd
                          {
                            OFFSET 1.937663 1e-06 -4e-06
                            CHANNELS 3 Zrotation Yrotation Xrotation
                          }
                        }
                      }
                    }
                  }
                  JOINT LeftHandPinky1
                  {
                    OFFSET 2.865315 -1.525436 0.575687
                    CHANNELS 3 Zrotation Yrotation Xrotation
                    JOINT LeftHandPinky2
                    {
                      OFFSET 5.54936 1e-06 -8e-06
                      CHANNELS 3 Zrotation Yrotation Xrotation
                      JOINT LeftHandPinky3
                      {
                        OFFSET 3.070974 0.0 -4e-06
                        CHANNELS 3 Zrotation Yrotation Xrotation
                        JOINT LeftHandPinky4
                        {
                          OFFSET 1.549672 1e-06 0.0
                          CHANNELS 3 Zrotation Yrotation Xrotation
                          JOINT LeftHandPinkyEnd
                          {
                            OFFSET 1.952123 0.0 0.0
                            CHANNELS 3 Zrotation Yrotation Xrotation
                          }
                        }
                      }
                    }
                  }
                }
              }
            }
          }
          JOINT RightShoulder
          {
            OFFSET 23.161716 5.296122 -1.380114
            CHANNELS 3 Zrotation Yrotation Xrotation
            JOINT RightArm
            {
              OFFSET -16.027195 -2e-06 1.1e-05
              CHANNELS 3 Zrotation Yrotation Xrotation
              JOINT RightForeArm
              {
                OFFSET -28.736639 4e-06 2e-06
                CHANNELS 3 Zrotation Yrotation Xrotation
                JOINT RightHand
                {
                  OFFSET -27.133619 6e-06 0.0
                  CHANNELS 3 Zrotation Yrotation Xrotation
                  JOINT RightHandThumb1
                  {
                    OFFSET -2.274328 -3.351035 -0.83067
                    CHANNELS 3 Zrotation Yrotation Xrotation
                    JOINT RightHandThumb2
                    {
                      OFFSET -4.703594 -3e-06 2e-06
                      CHANNELS 3 Zrotation Yrotation Xrotation
                      JOINT RightHandThumb3
                      {
                        OFFSET -2.794935 -4e-06 -3e-06
                        CHANNELS 3 Zrotation Yrotation Xrotation
                        JOINT RightHandThumbEnd
                        {
                          OFFSET -3.183852 4e-06 1e-06
                          CHANNELS 3 Zrotation Yrotation Xrotation
                        }
                      }
                    }
                  }
                  JOINT RightHandIndex1
                  {
                    OFFSET -3.253496 -2.33755 -0.127667
                    CHANNELS 3 Zrotation Yrotation Xrotation
                    JOINT RightHandIndex2
                    {
                      OFFSET -6.344434 0.0 0.0
                      CHANNELS 3 Zrotation Yrotation Xrotation
                      JOINT RightHandIndex3
                      {
                        OFFSET -3.654871 0.0 -8e-06
                        CHANNELS 3 Zrotation Yrotation Xrotation
                        JOINT RightHandIndex4
                        {
                          OFFSET -2.327586 -1e-06 0.0
                          CHANNELS 3 Zrotation Yrotation Xrotation
                          JOINT RightHandIndexEnd
                          {
                            OFFSET -2.770001 3e-06 8e-06
                            CHANNELS 3 Zrotation Yrotation Xrotation
                          }
                        }
                      }
                    }
                  }
                  JOINT RightHandMiddle1
                  {
                    OFFSET -3.168223 -0.944764 0.411762
                    CHANNELS 3 Zrotation Yrotation Xrotation
                    JOINT RightHandMiddle2
                    {
                      OFFSET -6.266691 -1e-06 -4e-06
                      CHANNELS 3 Zrotation Yrotation Xrotation
                      JOINT RightHandMiddle3
                      {
                        OFFSET -4.348901 0.0 0.0
                        CHANNELS 3 Zrotation Yrotation Xrotation
                        JOINT RightHandMiddle4
                        {
                          OFFSET -3.00024 2e-06 -4e-06
                          CHANNELS 3 Zrotation Yrotation Xrotation
                          JOINT RightHandMiddleEnd
                          {
                            OFFSET -2.321477 -4e-06 -4e-06
                            CHANNELS 3 Zrotation Yrotation Xrotation
                          }
                        }
                      }
                    }
                  }
                  JOINT RightHandRing1
                  {
                    OFFSET -2.885654 0.293261 -0.119232
                    CHANNELS 3 Zrotation Yrotation Xrotation
                    JOINT RightHandRing2
                    {
                      OFFSET -6.032835 -1e-06 -4e-06
                      CHANNELS 3 Zrotation Yrotation Xrotation
                      JOINT RightHandRing3
                      {
                        OFFSET -4.33881 0.0 -4e-06
                        CHANNELS 3 Zrotation Yrotation Xrotation
                        JOINT RightHandRing4
                        {
                          OFFSET -2.654903 -4e-06 -4e-06
                          CHANNELS 3 Zrotation Yrotation Xrotation
                          JOINT RightHandRingEnd
                          {
                            OFFSET -1.935122 0.0 4e-06
                            CHANNELS 3 Zrotation Yrotation Xrotation
                          }
                        }
                      }
                    }
                  }
                  JOINT RightHandPinky1
                  {
                    OFFSET -2.866241 1.503904 -0.60527
                    CHANNELS 3 Zrotation Yrotation Xrotation
                    JOINT RightHandPinky2
                    {
                      OFFSET -5.553177 -2e-06 0.0
                      CHANNELS 3 Zrotation Yrotation Xrotation
                      JOINT RightHandPinky3
                      {
                        OFFSET -3.062664 -1e-06 -4e-06
                        CHANNELS 3 Zrotation Yrotation Xrotation
                        JOINT RightHandPinky4
                        {
                          OFFSET -1.546529 2e-06 4e-06
                          CHANNELS 3 Zrotation Yrotation Xrotation
                          JOINT RightHandPinkyEnd
                          {
                            OFFSET -1.952341 0.0 -4e-06
                            CHANNELS 3 Zrotation Yrotation Xrotation
                          }
                        }
                      }
                    }
                  }
                }
              }
            }
          }
        }
      }
    }
    JOINT LeftLeg
    {
      OFFSET -8.443107 2.567604 10.043214
      CHANNELS 3 Zrotation Yrotation Xrotation
      JOINT LeftShin
      {
        OFFSET 43.229198 1e-06 -1e-06
        CHANNELS 3 Zrotation Yrotation Xrotation
        JOINT LeftFoot
        {
          OFFSET 42.298611 1e-06 1e-06
          CHANNELS 3 Zrotation Yrotation Xrotation
          JOINT LeftToeBase
          {
            OFFSET 14.165858 1e-06 0.0
            CHANNELS 3 Zrotation Yrotation Xrotation
            JOINT LeftToeEnd
            {
              OFFSET 6.7141 -0.234461 0.0
              CHANNELS 3 Zrotation Yrotation Xrotation
            }
          }
        }
      }
    }
    JOINT RightLeg
    {
      OFFSET -8.303923 2.592729 -10.047278
      CHANNELS 3 Zrotation Yrotation Xrotation
      JOINT RightShin
      {
        OFFSET -43.369682 0.0 1e-06
        CHANNELS 3 Zrotation Yrotation Xrotation
        JOINT RightFoot
        {
          OFFSET -42.260784 4e-06 2e-06
          CHANNELS 3 Zrotation Yrotation Xrotation
          JOINT RightToeBase
          {
            OFFSET -14.222245 -2e-06 -1e-06
            CHANNELS 3 Zrotation Yrotation Xrotation
            JOINT RightToeEnd
            {
              OFFSET -6.660062 0.232574 -2e-06
              CHANNELS 3 Zrotation Yrotation Xrotation
            }
          }
        }
      }
    }
  }
}
MOTION
Frames: 4
Frame Time: 0.03333333333333333
0.0 0.0 0.0 0.0 -0.0 0.0 -8.9438 47.368538 121.373001 74.989975 -51.624161 96.008202 12.399641 1.34474 -0.585561 -4.458519 0.18336 0.15006 24.541733 7.600832 2.535088 11.806829 -4.366643 3.78405 -2.580334 -0.490184 2.529147 -28.330753 1.245687 2.218809 4e-06 -0.0 -0.0 -0.258216 -0.163796 0.107606 -0.296672 -0.136681 0.118679 -0.206485 -0.202941 0.104028 -27.514795 -59.482201 30.1127 90.429092 -12.003261 -42.875233 17.761602 0.518128 0.367858 7.900609 74.103012 6.994111 17.636629 -26.322737 52.411194 -19.466661 -14.395596 29.410389 -1e-06 -8.774819 -1e-06 15.099468 -18.389374 6.880322 -0.609776 -1.795653 -3.889328 -4.807088 -11.046811 -2.937849 3e-06 -20.976021 3e-06 -5.019971 -25.03356 -4.031882 6e-06 -1e-06 0.0 -10.634533 -5.686969 -3.565587 10.57327 -17.922955 -3.113899 1e-06 -13.821213 1e-06 -0.50178 -31.181511 -4.027016 -11.098457 -59.758541 7.499872 -13.982712 -7.150198 -2.87504 13.772727 -8.401493 -3.218243 0.347731 -34.211555 0.771656 -0.96303 -17.733372 2.62102 1e-06 -0.0 -0.0 -17.346416 -20.095219 -4.201779 21.757557 -1.638376 3.866427 1e-06 -6.338822 0.0 -1.697591 -22.591751 -6.194005 -1e-06 -7e-06 -1e-06 -113.433235 -75.212395 -57.976543 76.936798 -37.429962 -53.544331 27.60857 -0.119765 0.481617 72.647324 31.194319 83.008781 22.182112 -20.375891 49.933315 -16.701807 -16.74353 28.476526 -0.0 -12.6906 -0.0 16.496965 -18.749804 2.144965 -0.105919 -1.513854 -4.275881 -5.039041 -5.612871 -2.953556 3e-06 -11.020527 -1e-06 -6.1113 -15.895334 -3.840469 0.0 1e-06 -0.0 -10.283369 -5.680285 -4.341838 11.028292 -11.302406 -2.372633 -1.38427 -14.238579 -6.320122 -0.62544 -26.924185 -3.827601 -3.997254 -50.036324 -4.605889 -13.708524 -7.363478 -3.720938 18.141146 -14.052741 -3.242674 5e-06 -18.78727 -3e-06 -0.429713 -8.456041 2.555503 0.0 1e-06 -0.0 -15.923536 -20.094484 -5.473582 30.41921 -7.190822 1.735925 1e-06 -8.162925 -0.0 -1.861902 -22.861467 -6.167942 -1e-06 -3e-06 -1e-06 167.915314 -14.163392 2.195679 57.629379 -0.863528 0.180631 -44.780029 8.769794 14.167662 -16.546844 1.522426 1.392045 -0.999996 1e-06 -0.0 -63.056473 7.488605 -5.817592 118.070473 -0.149451 0.047406 -63.412548 9.069159 0.578841 -21.004528 0.802903 1.372717 -1.0 0.0 -0.0 
0.0 0.0 0.0 0.0 -0.0 0.0 -9.733776 47.68037 122.794296 74.544754 -52.162605 96.761719 12.219901 1.253321 -0.659567 -4.67385 -0.187138 -0.009271 24.494585 7.22705 2.354425 11.048185 -3.911289 3.831866 -2.65585 -0.254309 2.646461 -28.667862 1.487979 2.240377 4e-06 -0.0 0.0 -0.27686 -0.113454 0.081864 -0.260271 -0.092332 0.101034 -0.174961 -0.145917 0.074648 -26.852825 -59.159008 29.330496 90.26899 -12.761147 -42.069786 17.576262 0.297037 0.299244 9.148548 75.966164 7.567115 17.636625 -26.322725 52.411186 -19.466656 -14.3956 29.410385 -2e-06 -8.774819 -2e-06 15.100705 -18.303574 6.913262 -0.609776 -1.795653 -3.889328 -4.807089 -11.046811 -2.937849 5e-06 -20.976017 0.0 -5.019968 -25.033548 -4.031881 6e-06 -1e-06 0.0 -10.634533 -5.686969 -3.565586 10.573276 -17.922947 -3.1139 4e-06 -13.821206 0.0 -0.501774 -31.181498 -4.027016 -10.875067 -59.752823 7.506814 -13.982712 -7.150196 -2.875042 13.77273 -8.401491 -3.218241 0.347737 -34.211544 0.771653 -0.963026 -17.733366 2.62102 0.0 -0.0 0.0 -17.346415 -20.095213 -4.201783 21.757557 -1.638376 3.866429 1e-06 -6.338822 -0.0 -1.697588 -22.591742 -6.194006 0.0 -5e-06 -2e-06 -116.558502 -75.630875 -55.253624 77.792267 -38.320518 -56.398476 33.02914 -0.686384 0.385264 71.721924 29.305651 82.049347 22.182121 -20.375898 49.933319 -16.701815 -16.743528 28.47653 -4e-06 -12.690601 -1e-06 16.724653 -18.989519 2.069081 -0.105919 -1.513856 -4.275882 -5.039041 -5.612869 -2.953556 5e-06 -11.020523 -2e-06 -6.111297 -15.89533 -3.840469 0.0 -1e-06 -0.0 -10.283371 -5.680286 -4.34184 11.028297 -11.302406 -2.372634 -1.38427 -14.238581 -6.32012 -0.625438 -26.924191 -3.827601 -4.024627 -50.333622 -4.748382 -13.708527 -7.363473 -3.720941 18.141153 -14.05274 -3.242673 7e-06 -18.78727 -1e-06 -0.42971 -8.456043 2.555505 -1e-06 -0.0 -0.0 -15.923536 -20.094481 -5.473588 30.419218 -7.190829 1.735927 2e-06 -8.162925 1e-06 -1.8619 -22.861469 -6.16794 0.0 -3e-06 -1e-06 168.059143 -15.223719 0.704057 55.656509 -1.586937 0.634239 -43.934883 9.792168 15.185128 -15.47779 1.501064 1.432906 -0.999997 1e-06 0.0 -61.895058 8.113315 -6.56712 115.962212 -0.016952 0.047688 -62.679935 9.387457 1.508548 -21.976398 0.758591 1.342943 -1.000001 0.0 0.0 
0.0 0.0 0.0 0.0 -0.0 0.0 -10.550423 48.047581 123.926231 74.691704 -52.544086 97.512596 12.180926 1.028239 -0.760163 -4.772327 -0.378062 -0.281519 24.307476 6.581504 1.829149 10.641844 -2.941411 3.948005 -2.670782 -0.289283 2.754095 -28.859644 1.548657 2.260624 6e-06 -0.0 -0.0 -0.272356 -0.12407 0.082118 -0.210938 -0.103252 0.099648 -0.132198 -0.15288 0.07583 -25.614443 -58.831268 28.064411 89.925789 -13.031018 -41.510384 16.848877 -0.029027 0.190988 11.24958 76.83448 8.407373 17.636631 -26.322729 52.411201 -19.466661 -14.3956 29.410395 -1e-06 -8.774822 -2e-06 14.914057 -18.246622 6.901456 -0.609776 -1.795653 -3.889327 -4.80709 -11.046812 -2.937851 3e-06 -20.976019 1e-06 -5.019971 -25.033556 -4.031882 6e-06 -1e-06 2e-06 -10.634536 -5.686971 -3.565589 10.573275 -17.922949 -3.1139 3e-06 -13.821209 1e-06 -0.501777 -31.181505 -4.027017 -11.056952 -59.484604 7.640176 -13.982716 -7.150198 -2.875042 13.77273 -8.401492 -3.218242 0.347733 -34.211555 0.771654 -0.963029 -17.733366 2.621022 -0.0 -0.0 -1e-06 -17.34642 -20.095217 -4.201783 21.757557 -1.638374 3.866428 1e-06 -6.338824 1e-06 -1.697588 -22.591742 -6.194006 0.0 -5e-06 -2e-06 -122.085907 -76.208641 -50.35078 78.763695 -37.847134 -58.371384 38.73996 -1.148276 0.284842 70.868736 28.228357 80.589798 22.182114 -20.375898 49.933327 -16.701813 -16.743528 28.476536 -3e-06 -12.6906 -0.0 16.974989 -19.197466 2.048984 -0.105919 -1.513855 -4.275881 -5.039041 -5.61287 -2.953556 5e-06 -11.02052 -2e-06 -6.111298 -15.895334 -3.840469 0.0 2e-06 -0.0 -10.283371 -5.680285 -4.341839 11.028296 -11.302402 -2.372633 -1.384269 -14.238581 -6.320122 -0.62544 -26.924185 -3.827599 -4.180541 -50.704994 -4.852799 -13.708524 -7.363476 -3.72094 18.14115 -14.052734 -3.242674 5e-06 -18.78727 -2e-06 -0.429711 -8.456041 2.555504 1e-06 -0.0 0.0 -15.923536 -20.094477 -5.473587 30.41921 -7.190826 1.735927 3e-06 -8.162924 0.0 -1.8619 -22.861467 -6.167942 0.0 -3e-06 -1e-06 166.65889 -15.98579 -0.408516 56.60466 -2.314014 1.068918 -45.300449 10.300514 15.139054 -14.914285 1.480718 1.501228 -0.999997 1e-06 -1e-06 -60.958935 8.241606 -7.189398 114.08107 0.062023 0.046447 -61.247707 9.988831 2.574575 -22.656265 0.755452 1.304044 -1.000002 -1e-06 0.0 
0.0 0.0 0.0 0.0 -0.0 0.0 -11.345763 48.40279 124.863144 75.31797 -52.762814 98.011803 12.23405 0.737889 -0.90705 -4.832268 -0.569237 -0.510447 24.15358 5.930829 1.201516 10.485328 -1.977702 3.978817 -2.671036 -0.28398 2.92293 -28.701836 1.490415 2.293075 6e-06 0.0 -0.0 -0.262351 -0.121171 0.075725 -0.20242 -0.095818 0.091001 -0.125648 -0.150681 0.06936 -24.038155 -58.845921 26.601685 89.245422 -12.977456 -40.972328 15.831303 -0.389228 0.087394 13.613788 76.947456 9.029456 17.636625 -26.322729 52.41119 -19.46666 -14.395597 29.410393 -2e-06 -8.774821 -2e-06 14.773126 -18.240072 6.805696 -0.609777 -1.795652 -3.889328 -4.807088 -11.046811 -2.93785 4e-06 -20.976015 0.0 -5.01997 -25.033556 -4.031882 6e-06 -0.0 1e-06 -10.634534 -5.68697 -3.565587 10.573272 -17.922951 -3.113901 2e-06 -13.821209 1e-06 -0.501775 -31.181498 -4.027017 -11.085412 -59.110355 7.574882 -13.982712 -7.150199 -2.875041 13.772727 -8.401489 -3.218242 0.347733 -34.211544 0.771654 -0.963028 -17.733366 2.621017 0.0 0.0 -0.0 -17.346416 -20.095219 -4.201783 21.757557 -1.638373 3.866428 0.0 -6.338826 1e-06 -1.697589 -22.591747 -6.194008 -1e-06 -6e-06 -1e-06 -129.871033 -76.522827 -43.407772 79.40023 -35.851078 -60.070763 44.011597 -1.491599 0.075984 69.594803 27.9489 78.536804 22.182108 -20.375898 49.933311 -16.701809 -16.743528 28.476526 -2e-06 -12.690598 1e-06 16.926989 -19.254776 2.207261 -0.105919 -1.513856 -4.275882 -5.039041 -5.612872 -2.953554 4e-06 -11.020525 -1e-06 -6.111297 -15.895332 -3.840469 0.0 1e-06 -1e-06 -10.283367 -5.680289 -4.341837 11.028289 -11.302406 -2.372632 -1.384269 -14.238579 -6.320118 -0.625442 -26.924191 -3.827599 -4.33892 -50.982922 -4.799517 -13.708521 -7.363475 -3.720938 18.141146 -14.052737 -3.242672 3e-06 -18.787271 -1e-06 -0.429711 -8.456043 2.555504 -0.0 -0.0 0.0 -15.923532 -20.094484 -5.473582 30.419207 -7.190823 1.735924 2e-06 -8.162925 -1e-06 -1.861905 -22.861469 -6.167941 1e-06 -3e-06 -1e-06 164.047806 -16.525898 -1.472241 60.107311 -2.996523 1.383907 -48.734425 9.633951 14.360937 -15.179213 1.499682 1.52154 -0.999996 0.0 -0.0 -60.106125 8.108575 -7.622532 112.362152 0.08513 0.034999 -59.152328 10.940772 3.748121 -22.533396 0.739407 1.294938 -1.000002 1e-06 -0.0 
